<?xml version="1.0" encoding="utf-8"?>
<!-- Generator: Adobe Illustrator 16.0.0, SVG Export Plug-In . SVG Version: 6.00 Build 0)  -->
<!DOCTYPE svg PUBLIC "-//W3C//DTD SVG 1.1//EN" "http://www.w3.org/Graphics/SVG/1.1/DTD/svg11.dtd">
<svg version="1.1" id="圖層_1" xmlns="http://www.w3.org/2000/svg" xmlns:xlink="http://www.w3.org/1999/xlink" x="0px" y="0px"
	 width="60px" height="55px" viewBox="7.65 -7.7 60 55" enable-background="new 7.65 -7.7 60 55" xml:space="preserve">
<path fill="#F39C3F" d="M43.347,8.645c0.159-0.957,0.479-1.673,0.797-2.071c0.398-0.398,0.797-0.718,1.354-0.797
	c0.559-0.16,1.435-0.24,2.63-0.319h0.158l0.24-1.434l-14.98,0.16l-0.239,1.274h0.159c1.354,0.08,2.311,0.239,2.869,0.319
	c0.558,0.079,0.876,0.398,1.115,0.797c0.239,0.398,0.239,1.195,0.08,2.231L35.618,19.72l0.797,1.275l2.231-12.51
	c0.239-1.434,0-2.47-0.717-3.028c0.717,0,1.195,0.16,1.514,0.558c0.398,0.478,0.478,1.195,0.319,2.151L37.292,22.35l2.869,4.462
	c0.079-0.239,0.079-0.558,0.158-0.797L43.347,8.645z"/>
<path fill="#F39C3F" d="M54.662,32.788c1.275-0.957,2.311-2.072,3.107-3.348c0.797-1.274,1.355-2.708,1.594-4.302l1.992-11.235
	c0.319-1.752,0.638-3.188,1.116-4.383c0.398-1.115,1.035-2.071,1.752-2.789c0.718-0.717,1.754-1.115,3.028-1.275h0.159l0.239-1.434
	H56.175l-0.238,1.434h0.159c1.354,0.08,2.312,0.398,2.948,0.957c0.638,0.558,1.036,1.514,1.115,2.708
	c0.079,1.275-0.079,3.029-0.478,5.26l-1.673,10.119c-0.319,1.912-1.037,3.586-1.992,4.939c-1.036,1.355-2.231,2.391-3.666,3.029
	c-1.434,0.637-3.106,1.035-4.86,1.035h-1.354l-0.319,2.071h1.116c1.274-0.079,2.47-0.318,3.586-0.637
	C51.953,34.461,53.466,33.744,54.662,32.788z M59.603,5.457h3.267c-0.398,0.319-0.797,0.718-1.037,1.116
	c-0.318,0.398-0.557,0.876-0.797,1.434C60.877,6.891,60.4,6.015,59.603,5.457L59.603,5.457z"/>
<path fill="#2B9CCB" d="M31.395,11.991l-10.438,8.047l1.912-11.075c0.319-1.275,0.717-2.231,1.354-2.709
	c0.638-0.558,1.833-0.797,3.585-0.797h0.319l0.239-1.274H13.228l-0.239,1.195c1.514,0,2.55,0.159,3.267,0.398
	c0.638,0.239,1.036,0.637,1.195,1.195c0.16,0.557,0.08,1.274-0.079,2.31l-3.666,20.876c-0.16,0.956-0.398,1.753-0.717,2.312
	c-0.319,0.557-0.797,1.035-1.435,1.354c-0.717,0.319-1.673,0.479-2.948,0.479H7.889L7.65,35.497h15.14l0.239-1.195
	c-0.239,0-0.478-0.08-0.797-0.08c-0.318,0-0.717-0.079-1.195-0.079c-0.956-0.079-1.514-0.478-1.753-1.116
	c-0.239-0.637-0.239-1.594-0.08-2.789l1.514-8.524l3.187-2.471l6.853,10.996c0.318,0.479,0.558,0.957,0.717,1.355
	c0.16,0.398,0.239,0.797,0.16,1.115c-0.16,1.036-1.435,1.594-3.825,1.594l-0.239,1.274h14.901l0.238-1.195
	c-0.717-0.079-1.274-0.238-1.753-0.558c-0.478-0.239-0.956-0.637-1.354-1.115s-0.956-1.275-1.673-2.391l-9.243-14.821l5.02-3.824
	l0.398-2.072C33.467,10.318,32.59,11.115,31.395,11.991z M19.443,9.442l-3.665,21.036c-0.16,1.035-0.319,1.752-0.478,2.23
	c-0.16,0.479-0.479,0.876-0.877,1.195c-0.398,0.318-1.115,0.398-1.992,0.398h-0.558c0.797-0.319,1.355-0.718,1.673-1.115
	c0.319-0.479,0.558-1.275,0.797-2.391L18.009,9.84c0.318-1.673,0.398-2.709,0.239-3.188c-0.08-0.478-0.478-0.876-1.195-1.195
	c1.355,0,2.152,0.239,2.47,0.797C19.762,6.732,19.762,7.848,19.443,9.442z M32.75,29.123c0.876,1.434,1.275,2.55,1.116,3.426
	c-0.08,0.478-0.319,0.876-0.797,1.274c-0.398,0.319-0.956,0.558-1.514,0.558h-0.558c0.797-0.398,1.275-0.876,1.354-1.513
	c0.08-0.479,0-0.957-0.159-1.515c-0.239-0.478-0.558-1.116-1.036-1.913l-6.534-10.676l1.195-0.877L32.75,29.123z"/>
</svg>
